<?xml version="1.0" standalone="no"?>
<!DOCTYPE svg PUBLIC "-//W3C//DTD SVG 20010904//EN"
 "http://www.w3.org/TR/2001/REC-SVG-20010904/DTD/svg10.dtd">
<svg version="1.0" xmlns="http://www.w3.org/2000/svg"
 width="3022.000000pt" height="3022.000000pt" viewBox="0 0 3022.000000 3022.000000"
 preserveAspectRatio="xMidYMid meet">
<metadata>
Created by potrace 1.14, written by Peter Selinger 2001-2017
</metadata>
<g transform="translate(0.000000,3022.000000) scale(0.100000,-0.100000)"
fill="#000000" stroke="none">
<path d="M0 15110 l0 -15110 15110 0 15110 0 0 15110 0 15110 -15110 0 -15110
0 0 -15110z m14773 6834 c383 -4 697 -8 697 -8 0 -1 -16 -110 -35 -241 -101
-703 -221 -1853 -265 -2535 -80 -1257 -94 -1669 -87 -2690 6 -964 19 -1214 78
-1624 39 -264 83 -398 161 -482 69 -75 123 -89 229 -58 167 48 347 221 642
615 l102 137 16 -28 c9 -15 221 -434 469 -930 l453 -904 -134 -131 c-369 -361
-787 -646 -1099 -749 -438 -145 -1001 -154 -1406 -21 -446 146 -812 501 -1028
997 -262 601 -385 1349 -416 2523 -20 774 -12 1539 25 2325 62 1309 133 2259
250 3335 25 226 48 427 51 449 l6 39 297 -7 c163 -3 610 -9 994 -12z m-6903
-35 c775 -52 1454 -262 2079 -640 279 -170 485 -332 727 -574 624 -623 1030
-1410 1228 -2380 136 -669 150 -1380 40 -2095 -83 -539 -230 -1015 -465 -1498
-351 -724 -830 -1286 -1449 -1699 -829 -553 -1870 -784 -2965 -658 -564 65
-1107 236 -1610 507 -636 342 -1166 825 -1584 1443 -670 991 -946 2171 -805
3435 45 405 145 851 279 1240 234 680 615 1302 1089 1775 312 312 635 544
1033 743 658 330 1467 465 2403 401z m14967 11 c838 -35 1496 -210 2138 -569
536 -300 953 -674 1314 -1179 419 -587 695 -1287 825 -2092 86 -530 93 -1132
21 -1705 -144 -1136 -630 -2170 -1351 -2875 -438 -428 -938 -736 -1514 -934
-1006 -346 -2262 -303 -3235 109 -805 340 -1426 840 -1944 1563 -434 607 -732
1359 -840 2122 -36 252 -42 338 -48 640 -8 406 14 702 77 1075 127 746 385
1422 758 1990 395 603 851 1033 1447 1366 527 294 1148 457 1855 488 255 11
245 11 497 1z m-1898 -11225 c374 -258 681 -474 681 -479 0 -5 -35 -52 -77
-104 -251 -309 -600 -659 -934 -938 -685 -570 -1639 -1128 -2556 -1495 -1067
-427 -2150 -667 -3288 -729 -239 -13 -884 -13 -1115 0 -886 50 -1680 224
-2507 551 l-151 60 38 117 c22 64 139 423 261 797 121 374 223 682 225 685 3
2 26 -4 52 -14 778 -299 1439 -442 2252 -487 264 -14 829 -6 1090 16 1276 107
2446 471 3520 1093 582 337 999 649 1435 1073 77 75 185 187 239 248 l100 111
27 -18 c15 -9 334 -228 708 -487z"/>
<path d="M7310 20094 c-394 -29 -710 -107 -988 -244 -245 -121 -420 -249 -612
-446 -132 -136 -176 -191 -290 -365 -280 -429 -433 -918 -501 -1604 -20 -199
-17 -651 4 -805 116 -823 577 -1555 1269 -2013 364 -241 722 -376 1138 -429
136 -17 515 -17 640 1 811 112 1391 527 1771 1265 189 366 284 716 346 1266
22 198 25 886 5 1050 -22 175 -51 336 -87 475 -172 674 -632 1253 -1231 1554
-286 144 -573 233 -884 276 -112 15 -470 27 -580 19z"/>
<path d="M22475 20094 c-125 -8 -335 -36 -450 -60 -473 -99 -919 -356 -1221
-705 -150 -174 -341 -465 -410 -629 -15 -36 -31 -69 -35 -75 -4 -5 -21 -48
-39 -95 -17 -47 -38 -103 -47 -125 -22 -60 -99 -382 -127 -536 -63 -342 -92
-836 -67 -1119 34 -373 126 -686 302 -1031 162 -318 371 -596 607 -812 344
-314 769 -552 1165 -653 811 -207 1668 -20 2220 484 206 188 382 421 533 707
183 345 297 769 351 1295 25 251 25 846 0 1050 -79 641 -279 1097 -670 1524
-365 399 -927 679 -1527 761 -112 15 -466 27 -585 19z"/>
</g>
</svg>
