<svg width="252" height="321" viewBox="0 0 252 321" fill="none" xmlns="http://www.w3.org/2000/svg">
<path d="M177.268 69.6627C191.935 72.3294 196.435 10.9964 182.268 1.66307C177.102 -1.83693 171.602 0.329068 169.102 6.82907C157.768 34.8291 161.935 66.8294 177.268 69.6627Z" fill="#FFD700"/>
<path d="M114.935 79.8299C122.935 83.9966 152.435 85.1633 153.935 81.3299C157.268 72.4966 133.768 65.9968 113.268 69.8301C107.602 70.9968 108.602 76.4968 114.935 79.8299Z" fill="#FFD700"/>
<path d="M175.935 152.163C186.768 152.163 188.768 104.163 178.268 96.1631C173.935 92.9965 164.935 93.3298 163.102 96.8298C150.935 119.33 158.602 152.163 175.935 152.163Z" fill="#FFD700"/>
<path d="M172.768 174.33C167.935 176.83 166.768 181.997 165.268 209.497C163.768 239.663 189.268 266.163 193.935 199.33C195.268 179.33 185.601 167.997 172.768 174.33Z" fill="#FFD700"/>
<path d="M228.1 86.1638C244.1 87.3305 249.602 85.1638 246.268 78.8305C242.602 71.9968 195.935 66.4965 193.602 72.6631C190.935 79.4971 203.6 84.3305 228.1 86.1638Z" fill="#FFD700"/>
<path d="M30.1015 164.663C13.7682 162.997 6.26786 161.33 1.93452 164.497C-6.06548 170.33 11.9347 178.497 34.1014 179.33C55.7684 179.997 52.2684 166.997 30.1015 164.663Z" fill="#FFD700"/>
<path d="M140.435 237.997C129.102 236.664 110.602 235.83 107.435 236.664C93.6017 239.997 111.768 250.33 134.268 252.164C162.768 254.497 168.602 241.497 140.435 237.997Z" fill="#FFD700"/>
<path d="M161.435 268.497C148.768 291.997 156.268 320.497 175.102 320.497C182.602 320.497 192.768 283.163 187.768 273.663C184.102 266.83 164.268 262.997 161.435 268.497Z" fill="#FFD700"/>
<path d="M68.7682 189.497C61.2682 184.664 51.6016 184.33 49.6016 188.997C47.1016 194.997 44.7682 224.164 46.6016 227.664C49.9349 234.33 69.7682 238.33 71.9349 232.83C75.1016 224.164 72.9349 192.164 68.7682 189.497Z" fill="#FFD700"/>
<path d="M247.435 245.996C239.268 238.663 195.935 234.996 193.435 241.33C190.602 248.83 201.601 253.163 227.268 254.496C251.601 255.83 256.268 253.83 247.435 245.996Z" fill="#FFD700"/>
<path d="M53.4348 99.9966C45.6015 101.33 43.1015 141.33 50.2682 149.997C56.2682 157.163 75.1015 164.663 74.6015 142.33C73.9348 110.33 73.2681 96.8299 53.4348 99.9966Z" fill="#FFD700"/>
<path d="M118.435 164.33C110.435 160.997 78.1018 161.163 76.9351 164.663C74.1018 171.83 87.4351 177.163 108.268 177.163C129.268 177.163 134.268 170.997 118.435 164.33Z" fill="#FFD700"/>
</svg>
