<svg width="442" height="168" viewBox="0 0 442 168" fill="none" xmlns="http://www.w3.org/2000/svg">
<path d="M87.2264 26.125C86.4097 28.3936 92.3988 40.6441 102.744 57.8855C138.225 116.778 133.506 117.323 139.949 117.323C146.845 117.323 145.847 114.782 124.794 75.762C102.199 33.929 90.3117 18.1395 87.2264 26.125Z" fill="#FFD700"/>
<path d="M81.1466 126.94C79.9669 128.12 80.6021 129.119 84.7764 133.656C91.0377 140.371 101.473 143.184 101.473 138.193C101.383 134.11 83.7782 124.309 81.1466 126.94Z" fill="#FFD700"/>
<path d="M66.3551 156.069C22.6165 141.55 7.46236 137.92 2.28995 141.006C-1.97502 143.456 0.565807 145.271 12.4533 148.265C22.6166 150.715 41.1285 156.341 59.2773 162.421C74.1591 167.412 77.6074 167.957 81.7816 166.414C87.4985 164.145 84.1409 161.967 66.3551 156.069Z" fill="#FFD700"/>
<path d="M158.914 4.2553C158.097 6.43316 162.725 27.1219 166.809 39.9168C167.807 43.0021 169.803 51.1691 171.255 57.9749C173.977 71.2235 174.431 71.9504 179.604 71.9504C184.504 71.9504 184.504 72.131 178.605 49.9894C168.351 11.4232 161.908 -3.5487 158.914 4.2553Z" fill="#FFD700"/>
<path d="M51.6548 99.4462C58.6421 105.798 60.8199 111.334 67.5348 111.334C78.3333 111.334 78.7871 110.608 65.9014 97.6313C42.0359 73.5841 19.1685 56.8872 14.2683 59.9725C9.64033 63.0578 27.2446 74.2193 51.6548 99.4462Z" fill="#FFD700"/>
<path d="M380.33 79.6639C387.226 73.8563 391.763 67.8672 391.763 64.6004C391.763 60.0632 386.137 58.7011 381.328 62.2401C349.295 85.5614 316.899 119.681 322.253 124.309C327.516 128.846 332.87 125.398 356.282 102.44C366.627 92.3672 377.426 82.114 380.33 79.6639Z" fill="#FFD700"/>
<path d="M253.651 6.79626C250.838 15.9614 247.934 37.5585 236.591 83.2028C234.322 92.2772 234.322 92.4578 237.226 95.1801C239.585 97.3579 244.123 98.1756 246.391 96.7237C248.297 95.544 263.451 32.0231 267.081 10.1538C268.351 1.62384 256.827 -3.73006 253.651 6.79626Z" fill="#FFD700"/>
<path d="M421.255 117.323C393.669 125.036 343.397 145.271 340.584 149.899C338.588 153.075 346.664 156.161 352.108 154.255L372.344 146.995C403.47 135.834 441.764 119.5 441.764 117.413C441.673 113.148 436.137 113.149 421.255 117.323Z" fill="#FFD700"/>
<path d="M321.8 24.1286C320.257 26.7602 315.629 33.9289 301.655 53.2574C295.303 61.9689 284.776 80.1177 284.776 82.2956C284.776 86.6513 297.118 71.5877 318.17 41.4607C322.707 34.9271 327.245 28.8473 328.334 27.9398C333.234 23.4934 324.704 19.2284 321.8 24.1286Z" fill="#FFD700"/>
</svg>
