<svg width="2416" height="1503" viewBox="0 0 2416 1503" fill="none" xmlns="http://www.w3.org/2000/svg">
<path d="M462 962.7C393.067 962.7 330.367 949.867 273.9 924.2C217.433 899.267 168.667 864.434 127.6 819.7C86.5333 774.967 55 724 33 666.8C11 609.6 0 549.1 0 485.3C0 426.634 8.8 369.067 26.4 312.6C44 255.4 70.7667 203.7 106.7 157.5C142.633 110.567 188.1 73.1669 243.1 45.3002C298.833 17.4335 364.467 3.50015 440 3.50015C518.467 3.50015 586.667 17.0668 644.6 44.2002C702.533 70.6002 750.2 106.167 787.6 150.9C825 195.634 852.867 246.234 871.2 302.7C889.533 359.167 898.7 417.1 898.7 476.5C898.7 547.634 888.067 612.9 866.8 672.3C845.533 731.7 815.467 783.4 776.6 827.4C737.733 870.667 691.533 904.034 638 927.5C584.467 950.967 525.8 962.7 462 962.7ZM462 779C506 779 546.7 768.367 584.1 747.1C621.5 725.1 651.567 691 674.3 644.8C697.033 598.6 708.4 538.467 708.4 464.4C708.4 400.6 695.933 348.167 671 307.1C646.067 266.034 613.8 235.6 574.2 215.8C534.6 196 493.167 186.1 449.9 186.1C400.767 186.1 359.333 194.9 325.6 212.5C291.867 230.1 264.733 253.934 244.2 284C223.667 313.334 209 346.334 200.2 383C191.4 419.667 187 457.434 187 496.3C187 534.434 194.333 570.734 209 605.2C223.667 638.934 243.467 669 268.4 695.4C294.067 721.067 323.4 741.6 356.4 757C389.4 771.667 424.6 779 462 779Z" fill="white"/>
<path d="M1220.99 975.9C1180.66 975.9 1147.29 967.1 1120.89 949.5C1095.22 932.634 1074.69 909.167 1059.29 879.1C1044.62 849.034 1033.62 814.567 1026.29 775.7C1019.69 736.834 1015.29 695.4 1013.09 651.4C1011.62 606.667 1010.89 561.934 1010.89 517.2C1010.89 478.334 1011.99 435.8 1014.19 389.6C1016.39 342.667 1018.96 295.367 1021.89 247.7C1025.56 199.3 1029.22 153.834 1032.89 111.3C1037.29 68.7669 1041.32 31.7335 1044.99 0.200195L1244.09 2.40017C1238.22 39.8002 1232.72 82.3335 1227.59 130C1222.46 176.934 1218.06 224.6 1214.39 273C1211.46 321.4 1208.89 366.134 1206.69 407.2C1205.22 448.267 1204.49 480.9 1204.49 505.1C1204.49 571.834 1205.59 624.267 1207.79 662.4C1210.72 700.534 1214.76 727.667 1219.89 743.8C1225.76 759.2 1233.46 766.9 1242.99 766.9C1255.46 766.9 1269.02 759.2 1283.69 743.8C1298.36 727.667 1312.66 709.7 1326.59 689.9L1420.09 875.8C1397.36 900.734 1370.22 923.467 1338.69 944C1307.16 965.267 1267.92 975.9 1220.99 975.9Z" fill="white"/>
<path d="M1978.8 962.7C1909.86 962.7 1847.16 949.867 1790.7 924.2C1734.23 899.267 1685.46 864.434 1644.4 819.7C1603.33 774.967 1571.8 724 1549.8 666.8C1527.8 609.6 1516.8 549.1 1516.8 485.3C1516.8 426.634 1525.6 369.067 1543.2 312.6C1560.8 255.4 1587.56 203.7 1623.5 157.5C1659.43 110.567 1704.9 73.1669 1759.9 45.3002C1815.63 17.4335 1881.26 3.50015 1956.8 3.50015C2035.26 3.50015 2103.46 17.0668 2161.4 44.2002C2219.33 70.6002 2267 106.167 2304.4 150.9C2341.8 195.634 2369.66 246.234 2388 302.7C2406.33 359.167 2415.5 417.1 2415.5 476.5C2415.5 547.634 2404.86 612.9 2383.6 672.3C2362.33 731.7 2332.26 783.4 2293.4 827.4C2254.53 870.667 2208.33 904.034 2154.8 927.5C2101.26 950.967 2042.6 962.7 1978.8 962.7ZM1978.8 779C2022.8 779 2063.5 768.367 2100.9 747.1C2138.3 725.1 2168.36 691 2191.1 644.8C2213.83 598.6 2225.2 538.467 2225.2 464.4C2225.2 400.6 2212.73 348.167 2187.8 307.1C2162.86 266.034 2130.6 235.6 2091 215.8C2051.4 196 2009.96 186.1 1966.7 186.1C1917.56 186.1 1876.13 194.9 1842.4 212.5C1808.66 230.1 1781.53 253.934 1761 284C1740.46 313.334 1725.8 346.334 1717 383C1708.2 419.667 1703.8 457.434 1703.8 496.3C1703.8 534.434 1711.13 570.734 1725.8 605.2C1740.46 638.934 1760.26 669 1785.2 695.4C1810.86 721.067 1840.2 741.6 1873.2 757C1906.2 771.667 1941.4 779 1978.8 779Z" fill="white"/>
<path d="M795.929 1439.85L848.454 1278.87C924.403 1310.15 1004.92 1327.29 1090 1330.31C1175.08 1333.32 1258.35 1323.92 1339.81 1302.09C1413.47 1282.35 1482.71 1253.17 1547.53 1214.55C1613.24 1176.44 1669.91 1130.13 1717.56 1075.6L1860.1 1174.07C1806.99 1242.2 1738.26 1301.61 1653.91 1352.31C1570.45 1403.52 1480.2 1442.13 1383.16 1468.13C1286.82 1493.94 1187.75 1505.3 1085.95 1502.21C984.339 1499.83 887.665 1479.04 795.929 1439.85Z" fill="#FFD700"/>
</svg>
