<svg width="2102" height="536" viewBox="0 0 2102 536" fill="none" xmlns="http://www.w3.org/2000/svg">
<path d="M204 531C203.6 518.2 203.2 504.8 202.8 490.8C202.8 476.8 202.8 461.8 202.8 445.8C202.8 425 203 403.4 203.4 381C203.8 358.6 204.6 336.4 205.8 314.4C183.8 303.2 162.6 287 142.2 265.8C122.2 244.2 103.2 220.4 85.2 194.4C67.2 168 51 141.6 36.6 115.2C22.2 88.8 10 65 1.69873e-06 43.8L99 3.59999C105.8 21.2 114.6 40.2 125.4 60.6C136.2 80.6 148 100.4 160.8 120C173.6 139.6 186.2 157.4 198.6 173.4C211.4 189 222.8 201.6 232.8 211.2C243.2 220.8 251.2 225.6 256.8 225.6C262.8 225.6 270.2 221.4 279 213C288.2 204.6 297.8 193.6 307.8 180C318.2 166 328.6 150.8 339 134.4C349.8 117.6 359.8 100.8 369 84C378.6 66.8 386.8 51 393.6 36.6C400.8 21.8 406 9.79996 409.2 0.599961L510 39C498.8 60.6 486 85 471.6 112.2C457.2 139 441.4 165.8 424.2 192.6C407 219.4 388.8 243.6 369.6 265.2C350.4 286.8 330.4 303.2 309.6 314.4C308.8 334.4 308.4 358 308.4 385.2C308.4 412 308.6 438.6 309 465C309.8 491.4 310.4 514 310.8 532.8C303.6 532.8 295 532.8 285 532.8C275 533.2 264.8 533.4 254.4 533.4C244 533.8 234.4 534 225.6 534C217.2 534.4 211.2 534.6 207.6 534.6L204 531ZM815.227 532.2C777.627 532.2 743.427 525.2 712.627 511.2C681.827 497.6 655.227 478.6 632.827 454.2C610.427 429.8 593.227 402 581.227 370.8C569.227 339.6 563.227 306.6 563.227 271.8C563.227 239.8 568.027 208.4 577.627 177.6C587.227 146.4 601.827 118.2 621.427 93C641.027 67.4 665.827 47 695.827 31.8C726.227 16.6 762.027 8.99996 803.227 8.99996C846.027 8.99996 883.227 16.4 914.827 31.2C946.427 45.6 972.427 65 992.827 89.4C1013.23 113.8 1028.43 141.4 1038.43 172.2C1048.43 203 1053.43 234.6 1053.43 267C1053.43 305.8 1047.63 341.4 1036.03 373.8C1024.43 406.2 1008.03 434.4 986.827 458.4C965.627 482 940.427 500.2 911.227 513C882.027 525.8 850.027 532.2 815.227 532.2ZM815.227 432C839.227 432 861.427 426.2 881.827 414.6C902.227 402.6 918.627 384 931.027 358.8C943.427 333.6 949.627 300.8 949.627 260.4C949.627 225.6 942.827 197 929.227 174.6C915.627 152.2 898.027 135.6 876.427 124.8C854.827 114 832.227 108.6 808.627 108.6C781.827 108.6 759.227 113.4 740.827 123C722.427 132.6 707.627 145.6 696.427 162C685.227 178 677.227 196 672.427 216C667.627 236 665.227 256.6 665.227 277.8C665.227 298.6 669.227 318.4 677.227 337.2C685.227 355.6 696.027 372 709.627 386.4C723.627 400.4 739.627 411.6 757.627 420C775.627 428 794.827 432 815.227 432ZM1300.62 535.8C1261.02 535.8 1229.62 532.4 1206.42 525.6C1183.22 518.8 1166.02 509.2 1154.82 496.8C1143.62 484.8 1136.22 470.6 1132.62 454.2C1129.42 437.4 1127.82 419.4 1127.82 400.2C1127.82 368.2 1128.62 331.6 1130.22 290.4C1132.22 249.2 1134.62 205 1137.42 157.8C1140.62 110.2 1144.02 61 1147.62 10.2L1256.82 21C1252.82 51.8 1249.22 83.4 1246.02 115.8C1243.22 147.8 1240.82 179 1238.82 209.4C1236.82 239.8 1235.22 267.4 1234.02 292.2C1232.82 317 1231.82 337.8 1231.02 354.6C1230.62 371 1230.42 381.6 1230.42 386.4C1230.42 400.4 1232.02 411 1235.22 418.2C1238.42 425 1244.82 429.6 1254.42 432C1264.02 434.4 1278.02 435.6 1296.42 435.6C1319.62 435.6 1345.82 434.2 1375.02 431.4C1404.22 428.2 1433.82 423.6 1463.82 417.6C1493.82 411.6 1521.22 404.4 1546.02 396L1569.42 499.2C1542.22 506 1512.82 512.2 1481.22 517.8C1450.02 523.4 1418.82 527.8 1387.62 531C1356.42 534.2 1327.42 535.8 1300.62 535.8ZM1863.47 532.2C1825.87 532.2 1791.67 525.2 1760.87 511.2C1730.07 497.6 1703.47 478.6 1681.07 454.2C1658.67 429.8 1641.47 402 1629.47 370.8C1617.47 339.6 1611.47 306.6 1611.47 271.8C1611.47 239.8 1616.27 208.4 1625.87 177.6C1635.47 146.4 1650.07 118.2 1669.67 93C1689.27 67.4 1714.07 47 1744.07 31.8C1774.47 16.6 1810.27 8.99996 1851.47 8.99996C1894.27 8.99996 1931.47 16.4 1963.07 31.2C1994.67 45.6 2020.67 65 2041.07 89.4C2061.47 113.8 2076.67 141.4 2086.67 172.2C2096.67 203 2101.67 234.6 2101.67 267C2101.67 305.8 2095.87 341.4 2084.27 373.8C2072.67 406.2 2056.27 434.4 2035.07 458.4C2013.87 482 1988.67 500.2 1959.47 513C1930.27 525.8 1898.27 532.2 1863.47 532.2ZM1863.47 432C1887.47 432 1909.67 426.2 1930.07 414.6C1950.47 402.6 1966.87 384 1979.27 358.8C1991.67 333.6 1997.87 300.8 1997.87 260.4C1997.87 225.6 1991.07 197 1977.47 174.6C1963.87 152.2 1946.27 135.6 1924.67 124.8C1903.07 114 1880.47 108.6 1856.87 108.6C1830.07 108.6 1807.47 113.4 1789.07 123C1770.67 132.6 1755.87 145.6 1744.67 162C1733.47 178 1725.47 196 1720.67 216C1715.87 236 1713.47 256.6 1713.47 277.8C1713.47 298.6 1717.47 318.4 1725.47 337.2C1733.47 355.6 1744.27 372 1757.87 386.4C1771.87 400.4 1787.87 411.6 1805.87 420C1823.87 428 1843.07 432 1863.47 432Z" fill="black"/>
</svg>
